<svg width="20" height="20" viewBox="0 0 20 20" fill="none" xmlns="http://www.w3.org/2000/svg">
<rect opacity="0.01" width="20" height="20" fill="black"/>
<path fill-rule="evenodd" clip-rule="evenodd" d="M9.14566 2.5C12.8141 2.5 15.7913 5.47726 15.7913 9.14566C15.7913 12.8141 12.8141 15.7913 9.14566 15.7913C5.47726 15.7913 2.5 12.8141 2.5 9.14566C2.5 5.47726 5.47726 2.5 9.14566 2.5ZM9.14566 14.3145C12.0011 14.3145 14.3145 12.0011 14.3145 9.14566C14.3145 6.28952 12.0011 3.97682 9.14566 3.97682C6.28952 3.97682 3.97682 6.28952 3.97682 9.14566C3.97682 12.0011 6.28952 14.3145 9.14566 14.3145ZM17.5 16.4551L15.411 14.367L14.3669 15.411L16.4552 17.5L17.5 16.4551Z" fill="#1E2025"/>
</svg>
