<svg width="12" height="12" viewBox="0 0 1024 1024" fill="none" xmlns="http://www.w3.org/2000/svg">
  <path d="M780.288 242.730667c-10.752-10.752-29.184-10.752-41.472 0l-104.490667 102.954666V262.698667a20.992 20.992 0 0 0-21.504-21.504h-15.36c-12.288 0-21.504 7.68-21.504 18.432V411.733333h1.536l-1.536 10.752c0 6.144 1.536 10.752 4.608 15.36a23.466667 23.466667 0 0 0 15.36 6.144h10.752l152.106667 1.536a21.973333 21.973333 0 0 0 21.504-21.504v-15.36c-1.536-13.824-12.288-21.504-24.576-21.504H675.84l102.912-102.954666c13.824-10.752 13.824-29.184 1.536-41.472zM242.773333 779.733333c10.709333 10.752 29.141333 10.752 41.429334 0l104.533333-102.954666v81.450666c0 12.288 9.173333 21.504 21.461333 21.504h15.36c12.330667 0 21.546667-7.68 21.546667-18.432v-150.613333h-1.536l1.536-10.709333a26.026667 26.026667 0 0 0-4.608-15.36 23.466667 23.466667 0 0 0-15.36-6.144h-10.794667l-152.106666-1.536a21.973333 21.973333 0 0 0-21.504 21.504v15.36c1.536 13.824 12.288 21.504 24.576 21.504h79.914666l-104.490666 102.954666c-10.752 10.752-10.752 29.184 0 41.472zM575.36 612.266667v150.570666c0 12.288 10.752 18.432 21.504 18.432h15.36a21.973333 21.973333 0 0 0 21.546667-21.504v-81.450666l104.490666 102.954666c10.709333 10.752 29.184 10.752 41.472 0 10.752-10.752 10.752-29.184 0-41.472l-104.490666-102.954666H755.2c12.288 0 23.04-7.68 24.576-21.504v-15.36a21.973333 21.973333 0 0 0-21.504-21.546667l-149.077333 1.578667h-10.752a19.754667 19.754667 0 0 0-15.36 6.101333c-3.072 3.114667-4.608 9.258667-4.608 15.36l-3.072 10.794667c1.536 0 0 0 0 0zM348.757333 387.157333H268.8c-12.288 0-23.04 7.68-24.576 21.504v15.36c0 12.288 10.752 21.504 21.504 21.504l152.106667-1.536h10.794666a19.754667 19.754667 0 0 0 15.36-6.144c3.029333-3.072 4.608-9.216 4.608-15.36l-1.578666-10.752h1.578666V259.626667c0-12.288-9.258667-18.432-21.504-18.432h-15.36a20.992 20.992 0 0 0-21.546666 21.504v82.986666L285.781333 242.730667c-10.794667-10.752-29.226667-10.752-41.514666 0-10.752 10.752-10.752 29.184 0 41.472l104.490666 102.954666z" fill="currentColor"/>
</svg>
