<svg width="12" height="12" viewBox="0 0 1024 1024" fill="none" xmlns="http://www.w3.org/2000/svg">
  <path d="M584.96 437.461333c10.794667 10.752 29.226667 10.752 41.514667 0l104.490666-102.912v82.944c0 12.288 9.216 21.504 21.504 21.504h15.36c12.288 0 21.504-7.68 21.504-18.432V268.458667h-1.536l1.536-10.752a25.941333 25.941333 0 0 0-4.608-15.36 23.466667 23.466667 0 0 0-15.36-6.144h-10.752L606.506667 234.666667a21.973333 21.973333 0 0 0-21.504 21.504v15.36c1.536 13.824 12.245333 21.504 24.576 21.504h79.872l-102.912 102.954666c-13.866667 10.752-13.866667 29.184-1.536 41.472z m-145.92 147.541334c-10.752-10.794667-29.226667-10.794667-41.514667 0l-104.490666 102.912v-81.408a20.992 20.992 0 0 0-21.504-21.504h-15.36c-12.288 0-21.504 7.68-21.504 18.432v150.570666h1.536l-1.536 10.752a26.026667 26.026667 0 0 0 4.608 15.36 23.466667 23.466667 0 0 0 15.36 6.144h10.752l152.106666 1.536a21.973333 21.973333 0 0 0 21.504-21.504v-15.36c-1.536-13.824-12.245333-21.504-24.576-21.504H334.549333l104.448-102.954666c10.794667-10.752 10.794667-29.226667 0-41.472z m348.757333 170.538666v-150.613333c0-12.245333-10.752-18.389333-21.504-18.389333h-15.36a21.973333 21.973333 0 0 0-21.504 21.504v81.408l-104.533333-102.912c-10.709333-10.794667-29.141333-10.794667-41.472 0-10.752 10.709333-10.752 29.184 0 41.472l104.533333 102.912H608c-12.288 0-23.04 7.68-24.618667 21.546666v15.36c0 12.288 10.794667 21.504 21.546667 21.504l149.034667-1.536h10.752a19.754667 19.754667 0 0 0 15.36-6.144c3.072-3.072 4.608-9.216 4.608-15.36l3.072-10.752c-1.536 0 0 0 0 0zM336.085333 293.034667h79.872c12.330667 0 23.04-7.68 24.576-21.504v-15.36a21.973333 21.973333 0 0 0-21.504-21.504l-152.106666 1.536h-10.752a19.754667 19.754667 0 0 0-15.36 6.144c-3.072 3.072-4.608 9.216-4.608 15.36l1.536 10.752h-1.536v152.106666c0 12.288 9.216 18.432 21.504 18.432h15.36a20.992 20.992 0 0 0 21.504-21.504V334.549333l104.490666 102.912c10.752 10.752 29.226667 10.752 41.472 0 10.794667-10.752 10.794667-29.184 0-41.472L336.085333 293.034667z" fill="currentColor"/>
</svg>
