<?xml version="1.0" encoding="UTF-8"?>
<svg width="36px" height="36px" viewBox="0 0 36 36" version="1.1" xmlns="http://www.w3.org/2000/svg" xmlns:xlink="http://www.w3.org/1999/xlink">
    <title>LOGO</title>
    <g id="控件" stroke="none" stroke-width="1" fill="none" fill-rule="evenodd">
        <g id="LOGO">
            <rect id="矩形" fill="#D8D8D8" opacity="0" x="0" y="0" width="36" height="36"></rect>
            <path d="M34.1770482,12.6775416 L28.4210024,9.22069437 C28.3135562,9.16362378 28.1792485,9.15547084 28.0948265,9.22069437 L27.1124613,9.97076499 C26.9551294,10.0930591 27.0318767,10.2846532 27.1316481,10.3621062 C27.1316481,10.3621062 29.1539389,12.897671 29.2345235,12.9832769 C29.3112708,13.0688828 29.3688313,13.2400945 29.2153367,13.3746181 C29.2153367,13.3705416 18.4899046,20.985389 18.4899046,20.985389 C18.1598913,21.2340537 17.8030165,21.2462831 17.449979,20.985389 L7.19654268,13.737424 C7.05456021,13.6314357 6.85885465,13.5009887 6.76292056,13.4276122 C6.62093809,13.3338534 6.55954027,13.1341063 6.70152273,12.9506651 C6.8435052,12.7631475 8.84660915,10.2846532 8.84660915,10.2846532 C8.89649488,10.1908944 8.86963334,9.97891793 8.75067506,9.89331204 L7.92180445,9.26553555 C7.80668354,9.17177672 7.66086371,9.14731789 7.51504388,9.22069437 L2.2194817,12.4859474 C2.23483116,12.4777945 2.30774107,12.4207239 1.89330577,12.6734651 C1.44817156,12.9425122 1.3484001,13.668124 1.7628354,14.1858357 C1.95470359,14.4630358 1.77434749,14.1980652 2.32309053,14.9032946 C2.33460262,14.9196005 2.34227735,14.9318299 2.35378944,14.9481358 L17.0470558,32.5503365 C17.6073109,33.2311071 18.5052541,33.0639718 18.9273641,32.54626 L34.1808856,14.1573004 C34.4802,13.7863416 34.7181166,13.0240416 34.1770482,12.6775416 Z M10.4659767,8.10781785 L17.4231175,12.7346122 C17.7531308,12.9995828 18.156054,12.9832769 18.5167662,12.7346122 C18.5167662,12.7346122 25.4623948,8.12820021 25.4547201,8.12004727 C25.7156608,7.92437667 25.6849619,7.5860296 25.3741355,7.37812959 L18.4553684,3.18344118 C17.998722,2.93885294 17.8951132,2.93885294 17.4461416,3.18344118 L10.5043504,7.37812959 C10.2856206,7.52080606 10.2357349,7.93252961 10.4659767,8.10781785 Z" id="形状备份" fill="#FFFFFF" fill-rule="nonzero"></path>
        </g>
    </g>
</svg>